<svg xmlns="http://www.w3.org/2000/svg" viewBox="0 0 521 521"><defs><style>.cls-1{fill:none;stroke:#000;stroke-miterlimit:10;stroke-width:19px;}</style></defs><title>Asset 2</title><g id="Layer_2" data-name="Layer 2"><g id="Layer_1-2" data-name="Layer 1"><g id="Layer_1-2-2" data-name="Layer 1-2"><path d="M260.5,19C393.92,19.13,502,127.39,501.83,260.81A241.57,241.57,0,0,1,354.5,483C230.82,533,90,473.31,40,349.63-9,228.63,47.06,90.64,166.5,38a240,240,0,0,1,94-19m0-19C116.63,0,0,116.63,0,260.5S116.63,521,260.5,521,521,404.37,521,260.5,404.37,0,260.5,0Z"/><line class="cls-1" x1="107.75" y1="260.5" x2="413.25" y2="260.5"/><line class="cls-1" x1="260.5" y1="107.75" x2="260.5" y2="413.25"/></g></g></g></svg>